<?xml version="1.0" encoding="iso-8859-1"?>
<!-- Generator: Adobe Illustrator 16.0.0, SVG Export Plug-In . SVG Version: 6.00 Build 0)  -->
<!DOCTYPE svg PUBLIC "-//W3C//DTD SVG 1.1//EN" "http://www.w3.org/Graphics/SVG/1.1/DTD/svg11.dtd">
<svg version="1.1" id="Capa_1" xmlns="http://www.w3.org/2000/svg" xmlns:xlink="http://www.w3.org/1999/xlink" x="0px" y="0px"
	 width="97.589px" height="97.589px" viewBox="0 0 97.589 97.589" style="enable-background:new 0 0 97.589 97.589;" fill="grey" stroke="grey"
	 xml:space="preserve">
<g>
	<g>
		
		
		<path d="M43.243,65.596h-8.011V2c0-1.105-0.896-2-2-2h-16.13c-1.104,0-2,0.895-2,2v63.596H7.091c-0.77,0-1.472,0.443-1.804,1.137
			c-0.333,0.695-0.237,1.519,0.246,2.117l18.076,26.955c0.38,0.473,0.953,0.746,1.558,0.746s1.178-0.273,1.558-0.746L44.801,68.85
			c0.482-0.6,0.578-1.422,0.246-2.117C44.715,66.039,44.013,65.596,43.243,65.596z"/>
	</g>
</g>
</svg>
