<?xml version="1.0" encoding="UTF-8"?><svg xmlns="http://www.w3.org/2000/svg" xmlns:xlink="http://www.w3.org/1999/xlink" viewBox="0 0 24 24" version="1.1"><path d="M19.078 4.93A9.912 9.912 0 0 0 12.012 2c-5.508 0-9.989 4.48-9.989 9.984a9.911 9.911 0 0 0 1.332 4.993l-1.417 5.175 5.296-1.39a10.003 10.003 0 0 0 4.774 1.218h.004c5.504 0 9.984-4.48 9.988-9.988a9.918 9.918 0 0 0-2.922-7.062zm-2.18 10.625c-.207.582-1.226 1.144-1.683 1.183-.461.043-.89.207-2.996-.62-2.54-1-4.14-3.602-4.266-3.77-.125-.164-1.016-1.352-1.016-2.578 0-1.23.645-1.832.872-2.082.23-.25.5-.313.668-.313.164 0 .332 0 .476.008.18.004.375.015.563.43.222.492.707 1.726.77 1.851.062.125.105.274.019.438-.082.168-.125.27-.246.418-.125.144-.262.324-.375.433-.125.125-.254.262-.11.512.145.25.645 1.066 1.387 1.726.953.852 1.758 1.114 2.008 1.239s.394.105.539-.063c.148-.164.625-.726.793-.976.164-.25.332-.207.558-.125.23.082 1.457.687 1.707.812s.414.188.477.29c.062.105.062.605-.145 1.187z" id="surface1"/><metadata><rdf:RDF xmlns:rdf="http://www.w3.org/1999/02/22-rdf-syntax-ns#" xmlns:rdfs="http://www.w3.org/2000/01/rdf-schema#" xmlns:dc="http://purl.org/dc/elements/1.1/"><rdf:Description about="https://iconscout.com/legal#licenses" dc:title="whatsapp" dc:description="whatsapp" dc:publisher="Iconscout" dc:date="2018-06-22" dc:format="image/svg+xml" dc:language="en"><dc:creator><rdf:Bag><rdf:li>Icons8</rdf:li></rdf:Bag></dc:creator></rdf:Description></rdf:RDF></metadata></svg>